<?xml version="1.0" encoding="utf-8"?>
<!-- Generator: Adobe Illustrator 26.0.3, SVG Export Plug-In . SVG Version: 6.00 Build 0)  -->
<svg version="1.1" id="Layer_1" xmlns="http://www.w3.org/2000/svg" xmlns:xlink="http://www.w3.org/1999/xlink" x="0px" y="0px"
	 viewBox="0 0 193.62 130.35" style="enable-background:new 0 0 193.62 130.35;" xml:space="preserve">
<style type="text/css">
	.st0{display:none;}
	.st1{fill:url(#SVGID_1_);}
</style>
<rect x="-389.81" y="20.1" style="fill:none;" width="206.22" height="53.63"/>
<g class="st0">
</g>
<g class="st0">
</g>
<g>
	<path class="st0" d="M24.87,116.46c-8.29-0.73-16.58-1.45-24.87-2.18C3.33,76.19,6.67,38.09,10,0
		C71.2,5.35,132.41,10.71,193.62,16.06c-3.33,38.09-6.67,76.19-10,114.28c-52.2-4.57-104.4-9.13-156.6-13.7
		c0.59-0.07,1.18-0.14,1.77-0.22c4.19-0.59,7.52-2.79,10.47-5.65c4.01-3.89,6.9-8.57,9.42-13.5c0.52-1.02,1.02-2.06,1.63-3.28
		c0.14,0.62,0.22,1.01,0.31,1.39c1.33,5.86,3.6,11.27,7.61,15.82c4.89,5.53,10.91,8.56,18.44,7.83c5.39-0.52,9.86-3.09,13.76-6.7
		c1.6-1.49,3.04-3.15,4.63-4.81c0.34,0.25,0.71,0.54,1.1,0.81c8.64,6.2,18.24,8.44,28.63,6.32c9.25-1.89,16.88-6.79,23.18-13.8
		c5.04-5.6,7.72-12.34,9.54-19.5c1.77-6.96,2.56-14.07,3.17-21.2c0.37-4.34,0.75-8.68,1.13-13.03c0.46-5.41,0.92-10.83,1.38-16.24
		c0.08-0.97,0.17-1.95,0.27-3.15c3.42,0.55,6.77,1.09,10.11,1.63c4.81,0.78,9.62,1.58,14.43,2.35c1.52,0.24,2.63-0.46,3.42-1.71
		c2.67-4.23,0.75-10.38-3.91-12.04c-2.47-0.88-5.08-1.38-7.63-2.03c-4.98-1.27-9.99-2.16-15.17-1.86
		c-10.76,0.63-21.21,2.8-31.32,6.5c-7.55,2.76-13.15,7.77-16.37,15.24c-2.59,6.01-3.37,12.38-3.61,18.84
		c-0.05,1.34,0.72,2.41,1.95,2.93c1.13,0.47,2.34,0.84,3.54,1.02c3.26,0.5,5.15-0.71,5.98-3.91c0.56-2.16,0.9-4.38,1.32-6.58
		c0.8-4.22,2.12-8.22,5.07-11.47c5.41-5.95,12.67-7.66,20.27-8.82c0.01,0.5,0.03,0.85,0.01,1.2c-0.37,9.22-0.66,18.45-1.13,27.67
		c-0.42,8.32-1.53,16.56-4.04,24.54c-0.82,2.61-1.67,5.34-3.15,7.6c-2.59,3.98-5.75,7.5-9.9,10.1c-5.31,3.32-10.93,5.25-17.2,5.03
		c-5.31-0.18-10-1.94-13.84-5.73c-0.53-0.52-0.76-0.94-0.41-1.75c3.31-7.81,6.07-15.81,7.89-24.1c1.76-8.01,2.68-16.09,1.71-24.29
		c-0.72-6.03-2.35-11.77-6.14-16.66c-3.96-5.11-9.08-7.94-15.7-7.11c-5.63,0.71-9.67,3.99-12.62,8.66
		c-4.19,6.63-5.1,14.02-4.72,21.66c0.42,8.59,2.68,16.77,5.76,24.75c2.41,6.24,5.35,12.22,8.61,18.05c0.21,0.37,0.34,1.08,0.13,1.33
		c-2.37,2.89-4.92,5.6-8.32,7.3c-4.16,2.09-7.82,1.31-10.86-2.21c-2.13-2.46-3.53-5.33-4.57-8.37c-3.82-11.21-4.78-22.77-4.12-34.52
		c0.14-2.47-0.74-4.16-2.89-5.14c-1.87-0.84-3.8-0.94-5.72-0.25c-1.79,0.64-2.94,1.84-3.2,3.82c-0.29,2.22-0.63,4.43-0.99,6.64
		c-1.36,8.23-3.5,16.24-6.92,23.88c-1.83,4.09-3.78,8.14-6.97,11.38c-1.09,1.11-2.47,2.07-3.9,2.67c-2.16,0.91-4.42-0.15-6.14-2.53
		c-2.67-3.69-3.8-7.98-4.61-12.36c-1.74-9.44-1.72-18.91-0.46-28.4c1.45-11.01,4.41-21.5,10.39-31c0.54-0.85,0.67-2.16,0.52-3.19
		c-0.31-2.18-2.78-4-5.56-4.41c-2.53-0.37-4.4,0.53-5.59,2.74C8.35,40.73,3.72,57.61,4.09,75.75C4.26,83.96,5.49,92,8.65,99.62
		C11.85,107.29,16.03,114.15,24.87,116.46z"/>
	
		<linearGradient id="SVGID_1_" gradientUnits="userSpaceOnUse" x1="0.1913" y1="44.8095" x2="183.9634" y2="44.8095" gradientTransform="matrix(0.9962 0.0872 -0.0872 0.9962 8.0898 13.1312)">
		<stop  offset="0" style="stop-color:#FF5340"/>
		<stop  offset="0.186" style="stop-color:#F95B43"/>
		<stop  offset="0.4794" style="stop-color:#EA724A"/>
		<stop  offset="0.8416" style="stop-color:#D19755"/>
		<stop  offset="1" style="stop-color:#C5A95B"/>
	</linearGradient>
	<path class="st1" d="M24.12,116.8c-8.83-2.31-13.02-9.17-16.21-16.84c-3.17-7.61-4.4-15.66-4.57-23.87
		c-0.37-18.13,4.26-35.02,12.82-50.9c1.19-2.2,3.06-3.11,5.59-2.74c2.79,0.41,5.26,2.23,5.56,4.41c0.15,1.03,0.02,2.34-0.52,3.19
		c-5.98,9.5-8.94,19.99-10.39,31c-1.25,9.49-1.28,18.97,0.46,28.4c0.81,4.38,1.94,8.67,4.61,12.36c1.73,2.39,3.98,3.44,6.14,2.53
		c1.43-0.6,2.81-1.56,3.9-2.67c3.19-3.24,5.14-7.29,6.97-11.38c3.42-7.63,5.56-15.64,6.92-23.88c0.37-2.21,0.7-4.42,0.99-6.64
		c0.26-1.97,1.41-3.18,3.2-3.82c1.93-0.69,3.86-0.59,5.72,0.25c2.15,0.97,3.03,2.66,2.89,5.14c-0.66,11.75,0.3,23.31,4.12,34.52
		c1.04,3.04,2.44,5.91,4.57,8.37c3.05,3.52,6.71,4.3,10.86,2.21c3.4-1.71,5.95-4.41,8.32-7.3c0.2-0.25,0.07-0.96-0.13-1.33
		c-3.26-5.83-6.21-11.81-8.61-18.05c-3.08-7.98-5.34-16.15-5.76-24.75c-0.38-7.63,0.53-15.03,4.72-21.66
		c2.95-4.67,7-7.95,12.62-8.66c6.62-0.83,11.74,2,15.7,7.11c3.79,4.89,5.42,10.63,6.14,16.66c0.98,8.2,0.05,16.28-1.71,24.29
		c-1.82,8.3-4.58,16.3-7.89,24.1c-0.34,0.81-0.12,1.23,0.41,1.75c3.84,3.79,8.53,5.55,13.84,5.73c6.27,0.22,11.89-1.71,17.2-5.03
		c4.16-2.6,7.31-6.12,9.9-10.1c1.47-2.26,2.32-4.99,3.15-7.6c2.51-7.98,3.62-16.22,4.04-24.54c0.47-9.22,0.76-18.45,1.13-27.67
		c0.01-0.35-0.01-0.71-0.01-1.2c-7.6,1.16-14.86,2.87-20.27,8.82c-2.95,3.25-4.27,7.25-5.07,11.47c-0.42,2.2-0.75,4.42-1.32,6.58
		c-0.83,3.19-2.72,4.4-5.98,3.91c-1.21-0.18-2.42-0.55-3.54-1.02c-1.23-0.52-1.99-1.59-1.95-2.93c0.23-6.46,1.02-12.83,3.61-18.84
		c3.22-7.48,8.81-12.48,16.37-15.24c10.11-3.7,19.56-5.1,30.32-5.72c5.17-0.3,10.87-0.26,15.85,1c2.55,0.65,2.72,0.86,5.19,1.74
		c4.66,1.67,9.34,8.18,6.67,12.4c-0.79,1.25-1.9,1.96-3.42,1.71c-4.81-0.77-7.86-2.16-12.66-2.94c-3.35-0.55-7.62-1.26-11.88-1.05
		c-0.1,1.2-0.19,2.17-0.27,3.15c-0.46,5.41-0.91,10.83-1.38,16.24c-0.37,4.34-0.76,8.68-1.13,13.03c-0.6,7.14-1.4,14.25-3.17,21.2
		c-1.82,7.16-4.51,13.9-9.54,19.5c-6.3,7.01-13.93,11.91-23.18,13.8c-10.4,2.12-19.99-0.12-28.63-6.32
		c-0.38-0.27-0.76-0.56-1.1-0.81c-1.59,1.66-3.03,3.32-4.63,4.81c-3.9,3.62-8.38,6.18-13.76,6.7c-7.53,0.73-13.55-2.29-18.44-7.83
		c-4.02-4.55-6.29-9.96-7.61-15.82c-0.09-0.39-0.17-0.77-0.31-1.39c-0.61,1.22-1.11,2.26-1.63,3.28c-2.53,4.93-5.42,9.62-9.42,13.5
		c-2.95,2.86-6.29,5.06-10.47,5.65c-0.59,0.08-1.18,0.15-1.77,0.22C25.56,116.93,24.84,116.86,24.12,116.8z M92.92,86.86
		c0.2-0.36,0.31-0.52,0.38-0.7c2.24-5.63,3.83-11.47,4.59-17.46c0.83-6.55,1-13.15,0.35-19.74c-0.36-3.67-0.93-7.3-2.66-10.63
		c-2.31-4.44-5.76-4.6-8.45-0.4c-1.65,2.57-2.44,5.46-2.89,8.44c-1.15,7.68-0.23,15.22,1.73,22.66
		C87.59,75.16,89.92,81.01,92.92,86.86z"/>
	<path class="st0" d="M93.66,86.52c-2.99-5.85-5.32-11.7-6.94-17.82c-1.96-7.45-2.88-14.98-1.73-22.66
		c0.45-2.98,1.24-5.87,2.89-8.44c2.69-4.2,6.14-4.04,8.45,0.4c1.73,3.32,2.3,6.96,2.66,10.63c0.65,6.59,0.47,13.19-0.35,19.74
		c-0.76,5.99-2.35,11.83-4.59,17.46C93.97,86,93.86,86.16,93.66,86.52z"/>
</g>
<rect x="-250.1" y="151.5" style="fill:none;" width="200" height="33.33"/>
<g class="st0">
</g>
</svg>
